<svg width="112" height="81" viewBox="0 0 112 81" fill="none" xmlns="http://www.w3.org/2000/svg">
<path d="M6.78977 18.2386C5.58523 18.2386 4.51136 18.017 3.56818 17.5739C2.63068 17.1307 1.88636 16.5199 1.33523 15.7415C0.784091 14.9631 0.497159 14.071 0.474432 13.0653H4.05398C4.09375 13.7415 4.37784 14.2898 4.90625 14.7102C5.43466 15.1307 6.0625 15.3409 6.78977 15.3409C7.36932 15.3409 7.88068 15.2131 8.32386 14.9574C8.77273 14.696 9.12216 14.3352 9.37216 13.875C9.62784 13.4091 9.75568 12.875 9.75568 12.2727C9.75568 11.6591 9.625 11.1193 9.36364 10.6534C9.10795 10.1875 8.75284 9.82386 8.2983 9.5625C7.84375 9.30114 7.32386 9.16761 6.73864 9.16193C6.22727 9.16193 5.73011 9.26705 5.24716 9.47727C4.76989 9.6875 4.39773 9.97443 4.13068 10.3381L0.849432 9.75L1.67614 0.545454H12.3466V3.5625H4.71875L4.26705 7.93466H4.36932C4.67614 7.50284 5.1392 7.14489 5.75852 6.8608C6.37784 6.5767 7.07102 6.43466 7.83807 6.43466C8.8892 6.43466 9.8267 6.68182 10.6506 7.17614C11.4744 7.67045 12.125 8.34943 12.6023 9.21307C13.0795 10.071 13.3153 11.0597 13.3097 12.179C13.3153 13.3551 13.0426 14.4006 12.4915 15.3153C11.946 16.2244 11.1818 16.9403 10.1989 17.4631C9.22159 17.9801 8.08523 18.2386 6.78977 18.2386ZM21.0994 15.3409V3.27273H24.1506V15.3409H21.0994ZM16.5909 10.8324V7.78125H28.6591V10.8324H16.5909Z" fill="#BB58FF"/>
<path d="M0.917614 49V31.5455H7.1392C8.49716 31.5455 9.62216 31.7926 10.5142 32.2869C11.4063 32.7812 12.0739 33.4574 12.517 34.3153C12.9602 35.1676 13.1818 36.1278 13.1818 37.196C13.1818 38.2699 12.9574 39.2358 12.5085 40.0938C12.0653 40.946 11.3949 41.6222 10.4972 42.1222C9.60511 42.6165 8.48295 42.8636 7.13068 42.8636H2.85227V40.6307H6.89205C7.75 40.6307 8.44602 40.483 8.98011 40.1875C9.5142 39.8864 9.90625 39.4773 10.1562 38.9602C10.4062 38.4432 10.5312 37.8551 10.5312 37.196C10.5312 36.5369 10.4062 35.9517 10.1562 35.4403C9.90625 34.929 9.51136 34.5284 8.97159 34.2386C8.4375 33.9489 7.73295 33.804 6.85795 33.804H3.55114V49H0.917614ZM19.7571 49.2898C18.9276 49.2898 18.1776 49.1364 17.5071 48.8295C16.8366 48.517 16.3054 48.0653 15.9134 47.4744C15.527 46.8835 15.3338 46.1591 15.3338 45.3011C15.3338 44.5625 15.4759 43.9545 15.7599 43.4773C16.044 43 16.4276 42.6222 16.9105 42.3438C17.3935 42.0653 17.9332 41.8551 18.5298 41.7131C19.1264 41.571 19.7344 41.4631 20.3537 41.3892C21.1378 41.2983 21.7741 41.2244 22.2628 41.1676C22.7514 41.1051 23.1065 41.0057 23.3281 40.8693C23.5497 40.733 23.6605 40.5114 23.6605 40.2045V40.1449C23.6605 39.4006 23.4503 38.8239 23.0298 38.4148C22.6151 38.0057 21.9957 37.8011 21.1719 37.8011C20.3139 37.8011 19.6378 37.9915 19.1435 38.3722C18.6548 38.7472 18.3168 39.1648 18.1293 39.625L15.7344 39.0795C16.0185 38.2841 16.4332 37.642 16.9787 37.1534C17.5298 36.6591 18.1634 36.3011 18.8793 36.0795C19.5952 35.8523 20.348 35.7386 21.1378 35.7386C21.6605 35.7386 22.2145 35.8011 22.7997 35.9261C23.3906 36.0455 23.9418 36.267 24.4531 36.5909C24.9702 36.9148 25.3935 37.3778 25.723 37.9801C26.0526 38.5767 26.2173 39.3523 26.2173 40.3068V49H23.7287V47.2102H23.6264C23.4616 47.5398 23.2145 47.8636 22.8849 48.1818C22.5554 48.5 22.1321 48.7642 21.6151 48.9744C21.098 49.1847 20.4787 49.2898 19.7571 49.2898ZM20.3111 47.2443C21.0156 47.2443 21.6179 47.1051 22.1179 46.8267C22.6236 46.5483 23.0071 46.1847 23.2685 45.7358C23.5355 45.2812 23.669 44.7955 23.669 44.2784V42.5909C23.5781 42.6818 23.402 42.767 23.1406 42.8466C22.8849 42.9205 22.5923 42.9858 22.2628 43.0426C21.9332 43.0937 21.6122 43.142 21.2997 43.1875C20.9872 43.2273 20.7259 43.2614 20.5156 43.2898C20.0213 43.3523 19.5696 43.4574 19.1605 43.6051C18.7571 43.7528 18.4332 43.9659 18.1889 44.2443C17.9503 44.517 17.831 44.8807 17.831 45.3352C17.831 45.9659 18.0639 46.4432 18.5298 46.767C18.9957 47.0852 19.5895 47.2443 20.3111 47.2443ZM29.6115 49V35.9091H32.0746V37.9886H32.2109C32.4496 37.2841 32.87 36.7301 33.4723 36.3267C34.0803 35.9176 34.7678 35.7131 35.5348 35.7131C35.6939 35.7131 35.8814 35.7187 36.0973 35.7301C36.3189 35.7415 36.4922 35.7557 36.6172 35.7727V38.2102C36.5149 38.1818 36.3331 38.1506 36.0717 38.1165C35.8104 38.0767 35.549 38.0568 35.2876 38.0568C34.6854 38.0568 34.1484 38.1847 33.6768 38.4403C33.2109 38.6903 32.8416 39.0398 32.5689 39.4886C32.2962 39.9318 32.1598 40.4375 32.1598 41.0057V49H29.6115ZM45.7067 35.9091V37.9545H38.5561V35.9091H45.7067ZM40.4737 32.7727H43.022V45.1562C43.022 45.6506 43.0959 46.0227 43.2436 46.2727C43.3913 46.517 43.5817 46.6847 43.8146 46.7756C44.0533 46.8608 44.3118 46.9034 44.5902 46.9034C44.7947 46.9034 44.9737 46.8892 45.1271 46.8608C45.2805 46.8324 45.3999 46.8097 45.4851 46.7926L45.9453 48.8977C45.7976 48.9545 45.5874 49.0114 45.3146 49.0682C45.0419 49.1307 44.701 49.1648 44.2919 49.1705C43.6214 49.1818 42.9964 49.0625 42.4169 48.8125C41.8374 48.5625 41.3686 48.1761 41.0107 47.6534C40.6527 47.1307 40.4737 46.4744 40.4737 45.6847V32.7727ZM51.0739 41.2273V49H48.5256V35.9091H50.9716V38.0398H51.1335C51.4347 37.3466 51.9063 36.7898 52.5483 36.3693C53.196 35.9489 54.0114 35.7386 54.9943 35.7386C55.8864 35.7386 56.6676 35.9261 57.3381 36.3011C58.0085 36.6705 58.5284 37.2216 58.8977 37.9545C59.267 38.6875 59.4517 39.5937 59.4517 40.6733V49H56.9034V40.9801C56.9034 40.0312 56.6563 39.2898 56.1619 38.7557C55.6676 38.2159 54.9886 37.946 54.125 37.946C53.5341 37.946 53.0085 38.0739 52.5483 38.3295C52.0938 38.5852 51.733 38.9602 51.4659 39.4545C51.2045 39.9432 51.0739 40.5341 51.0739 41.2273ZM68.5114 49.2642C67.2216 49.2642 66.1108 48.9886 65.179 48.4375C64.2528 47.8807 63.5369 47.0994 63.0312 46.0938C62.5312 45.0824 62.2812 43.8977 62.2812 42.5398C62.2812 41.1989 62.5312 40.017 63.0312 38.9943C63.5369 37.9716 64.2415 37.1733 65.1449 36.5994C66.054 36.0256 67.1165 35.7386 68.3324 35.7386C69.071 35.7386 69.7869 35.8608 70.4801 36.1051C71.1733 36.3494 71.7955 36.733 72.3466 37.2557C72.8977 37.7784 73.3324 38.4574 73.6506 39.2926C73.9688 40.1222 74.1278 41.1307 74.1278 42.3182V43.2216H63.7216V41.3125H71.6307C71.6307 40.642 71.4943 40.0483 71.2216 39.5312C70.9489 39.0085 70.5653 38.5966 70.071 38.2955C69.5824 37.9943 69.0085 37.8438 68.3494 37.8438C67.6335 37.8438 67.0085 38.0199 66.4744 38.3722C65.946 38.7187 65.5369 39.1733 65.2472 39.7358C64.9631 40.2926 64.821 40.8977 64.821 41.5511V43.0426C64.821 43.9176 64.9744 44.6619 65.2812 45.2756C65.5938 45.8892 66.0284 46.358 66.5852 46.6818C67.142 47 67.7926 47.1591 68.5369 47.1591C69.0199 47.1591 69.4602 47.0909 69.858 46.9545C70.2557 46.8125 70.5994 46.6023 70.8892 46.3239C71.179 46.0455 71.4006 45.7017 71.554 45.2926L73.9659 45.7273C73.7727 46.4375 73.4261 47.0597 72.9261 47.5938C72.4318 48.1222 71.8097 48.5341 71.0597 48.8295C70.3153 49.1193 69.4659 49.2642 68.5114 49.2642ZM76.9553 49V35.9091H79.4183V37.9886H79.5547C79.7933 37.2841 80.2138 36.7301 80.8161 36.3267C81.424 35.9176 82.1115 35.7131 82.8786 35.7131C83.0376 35.7131 83.2251 35.7187 83.4411 35.7301C83.6626 35.7415 83.8359 35.7557 83.9609 35.7727V38.2102C83.8587 38.1818 83.6768 38.1506 83.4155 38.1165C83.1541 38.0767 82.8928 38.0568 82.6314 38.0568C82.0291 38.0568 81.4922 38.1847 81.0206 38.4403C80.5547 38.6903 80.1854 39.0398 79.9126 39.4886C79.6399 39.9318 79.5036 40.4375 79.5036 41.0057V49H76.9553ZM91.3395 49.2642C90.0497 49.2642 88.9389 48.9886 88.0071 48.4375C87.081 47.8807 86.3651 47.0994 85.8594 46.0938C85.3594 45.0824 85.1094 43.8977 85.1094 42.5398C85.1094 41.1989 85.3594 40.017 85.8594 38.9943C86.3651 37.9716 87.0696 37.1733 87.973 36.5994C88.8821 36.0256 89.9446 35.7386 91.1605 35.7386C91.8991 35.7386 92.6151 35.8608 93.3082 36.1051C94.0014 36.3494 94.6236 36.733 95.1747 37.2557C95.7259 37.7784 96.1605 38.4574 96.4787 39.2926C96.7969 40.1222 96.956 41.1307 96.956 42.3182V43.2216H86.5497V41.3125H94.4588C94.4588 40.642 94.3224 40.0483 94.0497 39.5312C93.777 39.0085 93.3935 38.5966 92.8991 38.2955C92.4105 37.9943 91.8366 37.8438 91.1776 37.8438C90.4616 37.8438 89.8366 38.0199 89.3026 38.3722C88.7741 38.7187 88.3651 39.1733 88.0753 39.7358C87.7912 40.2926 87.6491 40.8977 87.6491 41.5511V43.0426C87.6491 43.9176 87.8026 44.6619 88.1094 45.2756C88.4219 45.8892 88.8565 46.358 89.4134 46.6818C89.9702 47 90.6207 47.1591 91.3651 47.1591C91.848 47.1591 92.2884 47.0909 92.6861 46.9545C93.0838 46.8125 93.4276 46.6023 93.7173 46.3239C94.0071 46.0455 94.2287 45.7017 94.3821 45.2926L96.794 45.7273C96.6009 46.4375 96.2543 47.0597 95.7543 47.5938C95.2599 48.1222 94.6378 48.5341 93.8878 48.8295C93.1435 49.1193 92.294 49.2642 91.3395 49.2642ZM104.684 49.2557C103.627 49.2557 102.684 48.9858 101.854 48.446C101.031 47.9006 100.383 47.125 99.9112 46.1193C99.4453 45.108 99.2124 43.8949 99.2124 42.4801C99.2124 41.0653 99.4482 39.8551 99.9197 38.8494C100.397 37.8437 101.05 37.0739 101.88 36.5398C102.71 36.0057 103.65 35.7386 104.701 35.7386C105.513 35.7386 106.167 35.875 106.661 36.1477C107.161 36.4148 107.548 36.7273 107.82 37.0852C108.099 37.4432 108.315 37.7585 108.468 38.0312H108.621V31.5455H111.17V49H108.681V46.9631H108.468C108.315 47.2415 108.093 47.5597 107.803 47.9176C107.519 48.2756 107.127 48.5881 106.627 48.8551C106.127 49.1222 105.479 49.2557 104.684 49.2557ZM105.246 47.0824C105.979 47.0824 106.599 46.8892 107.104 46.5028C107.616 46.1108 108.002 45.5682 108.263 44.875C108.531 44.1818 108.664 43.375 108.664 42.4545C108.664 41.5455 108.533 40.75 108.272 40.0682C108.011 39.3864 107.627 38.8551 107.121 38.4744C106.616 38.0937 105.991 37.9034 105.246 37.9034C104.479 37.9034 103.84 38.1023 103.329 38.5C102.817 38.8977 102.431 39.4403 102.17 40.1278C101.914 40.8153 101.786 41.5909 101.786 42.4545C101.786 43.3295 101.917 44.1165 102.178 44.8153C102.44 45.5142 102.826 46.0682 103.337 46.4773C103.854 46.8807 104.491 47.0824 105.246 47.0824ZM0.917614 80V62.5455H7.30966C8.5483 62.5455 9.57386 62.75 10.3864 63.1591C11.1989 63.5625 11.8068 64.1108 12.2102 64.804C12.6136 65.4915 12.8153 66.267 12.8153 67.1307C12.8153 67.858 12.6818 68.4716 12.4148 68.9716C12.1477 69.4659 11.7898 69.8636 11.3409 70.1648C10.8977 70.4602 10.4091 70.6761 9.875 70.8125V70.983C10.4545 71.0114 11.0199 71.1989 11.571 71.5455C12.1278 71.8864 12.5881 72.3722 12.9517 73.0028C13.3153 73.6335 13.4972 74.4006 13.4972 75.304C13.4972 76.196 13.2869 76.9972 12.8665 77.7074C12.4517 78.4119 11.8097 78.9716 10.9403 79.3864C10.071 79.7955 8.96023 80 7.60795 80H0.917614ZM3.55114 77.7415H7.35227C8.61364 77.7415 9.51705 77.4972 10.0625 77.0085C10.608 76.5199 10.8807 75.9091 10.8807 75.1761C10.8807 74.625 10.7415 74.1193 10.4631 73.6591C10.1847 73.1989 9.78693 72.8324 9.26989 72.5597C8.75852 72.2869 8.15057 72.1506 7.44602 72.1506H3.55114V77.7415ZM3.55114 70.0966H7.07955C7.67045 70.0966 8.2017 69.983 8.6733 69.7557C9.15057 69.5284 9.52841 69.2102 9.80682 68.8011C10.0909 68.3864 10.233 67.8977 10.233 67.3352C10.233 66.6136 9.98011 66.0085 9.47443 65.5199C8.96875 65.0312 8.19318 64.7869 7.14773 64.7869H3.55114V70.0966ZM20.2259 80.2898C19.3963 80.2898 18.6463 80.1364 17.9759 79.8295C17.3054 79.517 16.7741 79.0653 16.3821 78.4744C15.9957 77.8835 15.8026 77.1591 15.8026 76.3011C15.8026 75.5625 15.9446 74.9545 16.2287 74.4773C16.5128 74 16.8963 73.6222 17.3793 73.3438C17.8622 73.0653 18.402 72.8551 18.9986 72.7131C19.5952 72.571 20.2031 72.4631 20.8224 72.3892C21.6065 72.2983 22.2429 72.2244 22.7315 72.1676C23.2202 72.1051 23.5753 72.0057 23.7969 71.8693C24.0185 71.733 24.1293 71.5114 24.1293 71.2045V71.1449C24.1293 70.4006 23.919 69.8239 23.4986 69.4148C23.0838 69.0057 22.4645 68.8011 21.6406 68.8011C20.7827 68.8011 20.1065 68.9915 19.6122 69.3722C19.1236 69.7472 18.7855 70.1648 18.598 70.625L16.2031 70.0795C16.4872 69.2841 16.902 68.642 17.4474 68.1534C17.9986 67.6591 18.6321 67.3011 19.348 67.0795C20.0639 66.8523 20.8168 66.7386 21.6065 66.7386C22.1293 66.7386 22.6832 66.8011 23.2685 66.9261C23.8594 67.0455 24.4105 67.267 24.9219 67.5909C25.4389 67.9148 25.8622 68.3778 26.1918 68.9801C26.5213 69.5767 26.6861 70.3523 26.6861 71.3068V80H24.1974V78.2102H24.0952C23.9304 78.5398 23.6832 78.8636 23.3537 79.1818C23.0241 79.5 22.6009 79.7642 22.0838 79.9744C21.5668 80.1847 20.9474 80.2898 20.2259 80.2898ZM20.7798 78.2443C21.4844 78.2443 22.0866 78.1051 22.5866 77.8267C23.0923 77.5483 23.4759 77.1847 23.7372 76.7358C24.0043 76.2812 24.1378 75.7955 24.1378 75.2784V73.5909C24.0469 73.6818 23.8707 73.767 23.6094 73.8466C23.3537 73.9205 23.0611 73.9858 22.7315 74.0426C22.402 74.0937 22.081 74.142 21.7685 74.1875C21.456 74.2273 21.1946 74.2614 20.9844 74.2898C20.4901 74.3523 20.0384 74.4574 19.6293 74.6051C19.2259 74.7528 18.902 74.9659 18.6577 75.2443C18.419 75.517 18.2997 75.8807 18.2997 76.3352C18.2997 76.9659 18.5327 77.4432 18.9986 77.767C19.4645 78.0852 20.0582 78.2443 20.7798 78.2443ZM32.6286 72.2273V80H30.0803V66.9091H32.5263V69.0398H32.6882C32.9893 68.3466 33.4609 67.7898 34.103 67.3693C34.7507 66.9489 35.5661 66.7386 36.549 66.7386C37.4411 66.7386 38.2223 66.9261 38.8928 67.3011C39.5632 67.6705 40.0831 68.2216 40.4524 68.9545C40.8217 69.6875 41.0064 70.5937 41.0064 71.6733V80H38.4581V71.9801C38.4581 71.0312 38.2109 70.2898 37.7166 69.7557C37.2223 69.2159 36.5433 68.946 35.6797 68.946C35.0888 68.946 34.5632 69.0739 34.103 69.3295C33.6484 69.5852 33.2876 69.9602 33.0206 70.4545C32.7592 70.9432 32.6286 71.5341 32.6286 72.2273ZM46.7678 75.5597L46.7507 72.4489H47.1939L52.4098 66.9091H55.4609L49.5121 73.2159H49.1115L46.7678 75.5597ZM44.424 80V62.5455H46.9723V80H44.424ZM52.6911 80L48.0036 73.7784L49.7592 71.9972L55.8189 80H52.6911ZM67.593 70.1051L65.2834 70.5142C65.1868 70.2187 65.0334 69.9375 64.8232 69.6705C64.6186 69.4034 64.3402 69.1847 63.9879 69.0142C63.6357 68.8437 63.1953 68.7585 62.6669 68.7585C61.9453 68.7585 61.343 68.9205 60.8601 69.2443C60.3771 69.5625 60.1357 69.9744 60.1357 70.4801C60.1357 70.9176 60.2976 71.2699 60.6214 71.5369C60.9453 71.804 61.468 72.0227 62.1896 72.1932L64.2692 72.6705C65.4737 72.9489 66.3714 73.3778 66.9624 73.9574C67.5533 74.5369 67.8487 75.2898 67.8487 76.2159C67.8487 77 67.6214 77.6989 67.1669 78.3125C66.718 78.9205 66.0902 79.3977 65.2834 79.7443C64.4822 80.0909 63.5533 80.2642 62.4964 80.2642C61.0305 80.2642 59.8345 79.9517 58.9084 79.3267C57.9822 78.696 57.4141 77.8011 57.2038 76.642L59.6669 76.267C59.8203 76.9091 60.1357 77.3949 60.6129 77.7244C61.0902 78.0483 61.7124 78.2102 62.4794 78.2102C63.3146 78.2102 63.9822 78.0369 64.4822 77.6903C64.9822 77.3381 65.2322 76.9091 65.2322 76.4034C65.2322 75.9943 65.0788 75.6506 64.772 75.3722C64.4709 75.0937 64.0078 74.8835 63.3828 74.7415L61.1669 74.2557C59.9453 73.9773 59.0419 73.5341 58.4567 72.9261C57.8771 72.3182 57.5874 71.5483 57.5874 70.6165C57.5874 69.8437 57.8033 69.1676 58.2351 68.5881C58.6669 68.0085 59.2635 67.5568 60.0249 67.233C60.7862 66.9034 61.6584 66.7386 62.6413 66.7386C64.0561 66.7386 65.1697 67.0455 65.9822 67.6591C66.7947 68.267 67.3317 69.0824 67.593 70.1051Z" fill="black"/>
</svg>
