<svg width="21" height="21" viewBox="0 0 21 21" fill="none" xmlns="http://www.w3.org/2000/svg">
<path d="M9.14746 7.5H11.1475V5.5H9.14746M10.1475 18.5C5.73746 18.5 2.14746 14.91 2.14746 10.5C2.14746 6.09 5.73746 2.5 10.1475 2.5C14.5575 2.5 18.1475 6.09 18.1475 10.5C18.1475 14.91 14.5575 18.5 10.1475 18.5ZM10.1475 0.5C8.83424 0.5 7.53388 0.758658 6.32063 1.2612C5.10737 1.76375 4.00498 2.50035 3.07639 3.42893C1.20103 5.3043 0.147461 7.84784 0.147461 10.5C0.147461 13.1522 1.20103 15.6957 3.07639 17.5711C4.00498 18.4997 5.10737 19.2362 6.32063 19.7388C7.53388 20.2413 8.83424 20.5 10.1475 20.5C12.7996 20.5 15.3432 19.4464 17.2185 17.5711C19.0939 15.6957 20.1475 13.1522 20.1475 10.5C20.1475 9.18678 19.8888 7.88642 19.3863 6.67317C18.8837 5.45991 18.1471 4.35752 17.2185 3.42893C16.2899 2.50035 15.1876 1.76375 13.9743 1.2612C12.761 0.758658 11.4607 0.5 10.1475 0.5ZM9.14746 15.5H11.1475V9.5H9.14746V15.5Z" fill="#7D7B7B"/>
</svg>
