<svg width="21" height="21" viewBox="0 0 21 21" fill="none" xmlns="http://www.w3.org/2000/svg">
<path d="M10.1475 15.02V15.03M1.14746 10.02C1.14746 11.2019 1.38025 12.3722 1.83255 13.4642C2.28484 14.5561 2.94777 15.5483 3.7835 16.384C4.61923 17.2197 5.61138 17.8826 6.70331 18.3349C7.79524 18.7872 8.96556 19.02 10.1475 19.02C11.3294 19.02 12.4997 18.7872 13.5916 18.3349C14.6835 17.8826 15.6757 17.2197 16.5114 16.384C17.3471 15.5483 18.0101 14.5561 18.4624 13.4642C18.9147 12.3722 19.1475 11.2019 19.1475 10.02C19.1475 8.83812 18.9147 7.6678 18.4624 6.57587C18.0101 5.48394 17.3471 4.49179 16.5114 3.65606C15.6757 2.82033 14.6835 2.1574 13.5916 1.7051C12.4997 1.25281 11.3294 1.02002 10.1475 1.02002C8.96556 1.02002 7.79524 1.25281 6.70331 1.7051C5.61138 2.1574 4.61923 2.82033 3.7835 3.65606C2.94777 4.49179 2.28484 5.48394 1.83255 6.57587C1.38025 7.6678 1.14746 8.83812 1.14746 10.02Z" stroke="#7D7B7B" stroke-width="2" stroke-linecap="round" stroke-linejoin="round"/>
<path d="M10.1475 11.5202C10.129 11.1956 10.2166 10.8737 10.397 10.6032C10.5773 10.3327 10.8407 10.128 11.1475 10.0202C11.5233 9.87645 11.8607 9.64742 12.133 9.35114C12.4054 9.05486 12.6052 8.69941 12.7168 8.31277C12.8284 7.92614 12.8487 7.51888 12.7762 7.12305C12.7037 6.72722 12.5402 6.35363 12.2988 6.0317C12.0573 5.70976 11.7444 5.44827 11.3848 5.2678C11.0251 5.08734 10.6284 4.99283 10.226 4.99171C9.82357 4.99059 9.42639 5.0829 9.06571 5.26137C8.70503 5.43984 8.39069 5.69959 8.14746 6.02018" stroke="#7D7B7B" stroke-width="2" stroke-linecap="round" stroke-linejoin="round"/>
</svg>
