<svg width="19" height="22" viewBox="0 0 19 22" fill="none" xmlns="http://www.w3.org/2000/svg">
<path d="M18.3155 15.0975L16.3442 11.4581V7.66888C16.3442 3.88557 13.2662 0.807617 9.48294 0.807617C5.69963 0.807617 2.62168 3.88557 2.62168 7.66888V11.4581L0.650331 15.0975C0.560932 15.2625 0.515937 15.4479 0.519756 15.6355C0.523574 15.8232 0.576074 16.0066 0.672112 16.1679C0.76815 16.3291 0.904431 16.4626 1.0676 16.5554C1.23077 16.6481 1.41524 16.6969 1.60292 16.6968H5.52715C5.51641 16.8158 5.51058 16.9361 5.51058 17.058C5.51058 18.1115 5.92909 19.1219 6.67405 19.8668C7.419 20.6118 8.42937 21.0303 9.48289 21.0303C10.5364 21.0303 11.5468 20.6118 12.2917 19.8668C13.0367 19.1219 13.4552 18.1115 13.4552 17.058C13.4552 16.9361 13.4494 16.8158 13.4386 16.6968H17.3629C17.5505 16.6968 17.735 16.6481 17.8981 16.5553C18.0613 16.4626 18.1975 16.329 18.2935 16.1678C18.3896 16.0066 18.442 15.8232 18.4459 15.6355C18.4497 15.4479 18.4048 15.2625 18.3155 15.0975ZM12.0108 17.058C12.0111 17.4054 11.9397 17.7491 11.8013 18.0677C11.6628 18.3863 11.4601 18.6729 11.2059 18.9097C10.9518 19.1465 10.6515 19.3283 10.3239 19.4439C9.9963 19.5594 9.6484 19.6062 9.3019 19.5814C8.95541 19.5565 8.61776 19.4605 8.31004 19.2993C8.00231 19.1381 7.73111 18.9152 7.51335 18.6445C7.2956 18.3739 7.13598 18.0612 7.04444 17.7261C6.95291 17.391 6.93142 17.0406 6.98133 16.6968H11.9845C12.0019 16.8164 12.0106 16.9371 12.0108 17.058ZM2.20919 15.2524L4.06615 11.8242V7.66888C4.06615 6.23226 4.63685 4.85448 5.65269 3.83863C6.66854 2.82279 8.04632 2.25209 9.48294 2.25209C10.9196 2.25209 12.2973 2.82279 13.3132 3.83863C14.329 4.85448 14.8997 6.23226 14.8997 7.66888V11.8242L16.7566 15.2524H2.20919Z" fill="black"/>
</svg>
