<svg width="18" height="22" viewBox="0 0 18 22" fill="none" xmlns="http://www.w3.org/2000/svg">
<path d="M8.08496 16.4375H10.21V10.0625H8.08496V16.4375ZM9.14746 7.9375C9.4485 7.9375 9.70102 7.8355 9.90502 7.6315C10.109 7.4275 10.2107 7.17533 10.21 6.875C10.2093 6.57467 10.1073 6.3225 9.90396 6.1185C9.70067 5.9145 9.4485 5.8125 9.14746 5.8125C8.84642 5.8125 8.59425 5.9145 8.39096 6.1185C8.18767 6.3225 8.08567 6.57467 8.08496 6.875C8.08425 7.17533 8.18625 7.42785 8.39096 7.63256C8.59567 7.83727 8.84784 7.93892 9.14746 7.9375ZM9.14746 21.75C6.686 21.1302 4.65379 19.7178 3.05084 17.5127C1.44788 15.3077 0.646753 12.8597 0.647461 10.1688V3.6875L9.14746 0.5L17.6475 3.6875V10.1688C17.6475 12.8604 16.8463 15.3088 15.2441 17.5138C13.6418 19.7189 11.6096 21.1309 9.14746 21.75ZM9.14746 19.5187C10.9891 18.9344 12.512 17.7656 13.7162 16.0125C14.9204 14.2594 15.5225 12.3115 15.5225 10.1688V5.14844L9.14746 2.75781L2.77246 5.14844V10.1688C2.77246 12.3115 3.37454 14.2594 4.57871 16.0125C5.78288 17.7656 7.30579 18.9344 9.14746 19.5187Z" fill="#7D7B7B"/>
</svg>
