<svg width="17" height="22" viewBox="0 0 17 22" fill="none" xmlns="http://www.w3.org/2000/svg">
<path fill-rule="evenodd" clip-rule="evenodd" d="M3.61426 12.4831C3.61426 12.2709 3.69854 12.0674 3.84857 11.9174C3.9986 11.7674 4.20208 11.6831 4.41426 11.6831H11.8809C12.0931 11.6831 12.2966 11.7674 12.4466 11.9174C12.5966 12.0674 12.6809 12.2709 12.6809 12.4831C12.6809 12.6953 12.5966 12.8988 12.4466 13.0488C12.2966 13.1988 12.0931 13.2831 11.8809 13.2831H4.41426C4.20208 13.2831 3.9986 13.1988 3.84857 13.0488C3.69854 12.8988 3.61426 12.6953 3.61426 12.4831ZM3.61426 15.6831C3.61426 15.4709 3.69854 15.2674 3.84857 15.1174C3.9986 14.9674 4.20208 14.8831 4.41426 14.8831H11.8809C12.0931 14.8831 12.2966 14.9674 12.4466 15.1174C12.5966 15.2674 12.6809 15.4709 12.6809 15.6831C12.6809 15.8953 12.5966 16.0988 12.4466 16.2488C12.2966 16.3988 12.0931 16.4831 11.8809 16.4831H4.41426C4.20208 16.4831 3.9986 16.3988 3.84857 16.2488C3.69854 16.0988 3.61426 15.8953 3.61426 15.6831Z" fill="#7D7B7B"/>
<path fill-rule="evenodd" clip-rule="evenodd" d="M0.147461 2.88333C0.147461 1.70787 1.10533 0.75 2.28079 0.75H9.41679C10.0163 0.75 10.5816 1.00387 10.9795 1.42307L10.9859 1.43053L15.5853 6.446C15.9683 6.85453 16.1475 7.38893 16.1475 7.89667V18.8833C16.1475 20.0588 15.1896 21.0167 14.0141 21.0167H2.28079C1.10533 21.0167 0.147461 20.0588 0.147461 18.8833V2.88333ZM9.41573 2.88333H2.28079V18.8833H14.0141V7.88813L9.43173 2.8908L9.42853 2.88973C9.42464 2.88691 9.42032 2.88475 9.41573 2.88333Z" fill="#7D7B7B"/>
<path fill-rule="evenodd" clip-rule="evenodd" d="M9.41725 0.75C9.70015 0.75 9.97146 0.862381 10.1715 1.06242C10.3715 1.26246 10.4839 1.53377 10.4839 1.81667V6.83H15.0813C15.2213 6.83 15.36 6.85759 15.4894 6.9112C15.6189 6.9648 15.7365 7.04337 15.8355 7.14242C15.9345 7.24147 16.0131 7.35906 16.0667 7.48847C16.1203 7.61789 16.1479 7.75659 16.1479 7.89667C16.1479 8.03674 16.1203 8.17545 16.0667 8.30486C16.0131 8.43428 15.9345 8.55187 15.8355 8.65091C15.7365 8.74996 15.6189 8.82853 15.4894 8.88214C15.36 8.93574 15.2213 8.96333 15.0813 8.96333H9.41725C9.13435 8.96333 8.86304 8.85095 8.66301 8.65091C8.46297 8.45088 8.35059 8.17956 8.35059 7.89667V1.81667C8.35059 1.53377 8.46297 1.26246 8.66301 1.06242C8.86304 0.862381 9.13435 0.75 9.41725 0.75Z" fill="#7D7B7B"/>
</svg>
