<svg width="8949" height="5051" viewBox="0 0 8949 5051" fill="none" xmlns="http://www.w3.org/2000/svg">
<path d="M8273.46 3354.16L7743.21 4601.01H7464.45L7658.37 4170.75L7314.47 3354.16H7603.83L7799.27 3882.9L7993.19 3354.16H8273.46Z" fill="url(#paint0_linear_2_86)"/>
<path d="M6330.15 3775.33C6330.15 3688.47 6346.31 3612.22 6378.63 3546.57C6411.96 3480.92 6456.91 3430.42 6513.47 3395.07C6570.03 3359.72 6633.15 3342.04 6702.84 3342.04C6762.43 3342.04 6814.45 3354.16 6858.89 3378.4C6904.34 3402.64 6939.18 3434.46 6963.42 3473.85V3354.16H7222.49V4199.53H6963.42V4079.85C6938.17 4119.24 6902.82 4151.05 6857.37 4175.29C6812.93 4199.53 6760.92 4211.65 6701.33 4211.65C6632.65 4211.65 6570.03 4193.98 6513.47 4158.63C6456.91 4122.27 6411.96 4071.26 6378.63 4005.61C6346.31 3938.95 6330.15 3862.19 6330.15 3775.33ZM6963.42 3776.85C6963.42 3712.21 6945.24 3661.2 6908.88 3623.83C6873.53 3586.46 6830.1 3567.78 6778.59 3567.78C6727.08 3567.78 6683.15 3586.46 6646.79 3623.83C6611.44 3660.19 6593.76 3710.69 6593.76 3775.33C6593.76 3839.97 6611.44 3891.48 6646.79 3929.86C6683.15 3967.23 6727.08 3985.92 6778.59 3985.92C6830.1 3985.92 6873.53 3967.23 6908.88 3929.86C6945.24 3892.49 6963.42 3841.49 6963.42 3776.85Z" fill="url(#paint1_linear_2_86)"/>
<path d="M5612.48 3473.85C5637.73 3434.46 5672.58 3402.64 5717.02 3378.4C5761.46 3354.16 5813.47 3342.04 5873.06 3342.04C5942.75 3342.04 6005.88 3359.72 6062.44 3395.07C6119 3430.42 6163.44 3480.92 6195.76 3546.57C6229.09 3612.22 6245.75 3688.47 6245.75 3775.33C6245.75 3862.19 6229.09 3938.95 6195.76 4005.61C6163.44 4071.26 6119 4122.27 6062.44 4158.63C6005.88 4193.98 5942.75 4211.65 5873.06 4211.65C5814.48 4211.65 5762.47 4199.53 5717.02 4175.29C5672.58 4151.05 5637.73 4119.74 5612.48 4081.36V4602.52H5353.42V3354.16H5612.48V3473.85ZM5982.14 3775.33C5982.14 3710.69 5963.96 3660.19 5927.6 3623.83C5892.25 3586.46 5848.32 3567.78 5795.8 3567.78C5744.29 3567.78 5700.35 3586.46 5663.99 3623.83C5628.64 3661.2 5610.97 3712.21 5610.97 3776.85C5610.97 3841.49 5628.64 3892.49 5663.99 3929.86C5700.35 3967.23 5744.29 3985.92 5795.8 3985.92C5847.31 3985.92 5891.24 3967.23 5927.6 3929.86C5963.96 3891.48 5982.14 3839.97 5982.14 3775.33Z" fill="url(#paint2_linear_2_86)"/>
<path d="M4773.6 4211.65C4690.78 4211.65 4616.04 4193.98 4549.38 4158.63C4483.73 4123.28 4431.71 4072.78 4393.33 4007.13C4355.96 3941.48 4337.28 3864.72 4337.28 3776.85C4337.28 3689.99 4356.47 3613.73 4394.85 3548.08C4433.23 3481.42 4485.75 3430.42 4552.41 3395.07C4619.07 3359.72 4693.81 3342.04 4776.63 3342.04C4859.45 3342.04 4934.19 3359.72 5000.85 3395.07C5067.51 3430.42 5120.03 3481.42 5158.41 3548.08C5196.79 3613.73 5215.98 3689.99 5215.98 3776.85C5215.98 3863.71 5196.28 3940.47 5156.89 4007.13C5118.51 4072.78 5065.49 4123.28 4997.82 4158.63C4931.16 4193.98 4856.42 4211.65 4773.6 4211.65ZM4773.6 3987.43C4823.09 3987.43 4865 3969.25 4899.34 3932.89C4934.69 3896.53 4952.37 3844.52 4952.37 3776.85C4952.37 3709.18 4935.2 3657.16 4900.86 3620.8C4867.53 3584.44 4826.12 3566.26 4776.63 3566.26C4726.13 3566.26 4684.21 3584.44 4650.88 3620.8C4617.55 3656.15 4600.89 3708.17 4600.89 3776.85C4600.89 3844.52 4617.05 3896.53 4649.37 3932.89C4682.7 3969.25 4724.11 3987.43 4773.6 3987.43Z" fill="url(#paint3_linear_2_86)"/>
<path d="M4244.49 3979.86V4199.53H4112.68C4018.75 4199.53 3945.53 4176.81 3893.01 4131.36C3840.49 4084.9 3814.23 4009.65 3814.23 3905.62V3569.29H3711.21V3354.16H3814.23V3148.12H4073.29V3354.16H4242.97V3569.29H4073.29V3908.65C4073.29 3933.9 4079.35 3952.08 4091.47 3963.19C4103.59 3974.3 4123.79 3979.86 4152.07 3979.86H4244.49Z" fill="url(#paint4_linear_2_86)"/>
<path d="M3272.44 4211.65C3198.71 4211.65 3133.06 4199.03 3075.49 4173.78C3017.92 4148.53 2972.47 4114.19 2939.14 4070.76C2905.81 4026.32 2887.12 3976.83 2883.08 3922.29H3139.11C3142.14 3951.58 3155.78 3975.31 3180.02 3993.49C3204.26 4011.67 3234.06 4020.76 3269.41 4020.76C3301.73 4020.76 3326.47 4014.7 3343.64 4002.58C3361.82 3989.45 3370.91 3972.79 3370.91 3952.59C3370.91 3928.35 3358.29 3910.67 3333.04 3899.56C3307.79 3887.44 3266.88 3874.31 3210.32 3860.17C3149.72 3846.03 3099.22 3831.39 3058.82 3816.24C3018.42 3800.08 2983.58 3775.33 2954.29 3742C2925 3707.66 2910.35 3661.71 2910.35 3604.14C2910.35 3555.66 2923.48 3511.72 2949.74 3472.33C2977.01 3431.93 3016.4 3400.12 3067.91 3376.89C3120.43 3353.66 3182.55 3342.04 3254.26 3342.04C3360.31 3342.04 3443.63 3368.3 3504.23 3420.82C3565.84 3473.34 3601.19 3543.03 3610.28 3629.89H3370.91C3366.87 3600.6 3353.74 3577.37 3331.52 3560.2C3310.31 3543.03 3282.03 3534.45 3246.68 3534.45C3216.38 3534.45 3193.15 3540.51 3176.99 3552.63C3160.83 3563.74 3152.75 3579.39 3152.75 3599.59C3152.75 3623.83 3165.38 3642.01 3190.62 3654.13C3216.88 3666.25 3257.29 3678.37 3311.83 3690.49C3374.45 3706.65 3425.45 3722.81 3464.84 3738.97C3504.23 3754.12 3538.57 3779.37 3567.86 3814.72C3598.16 3849.06 3613.82 3895.52 3614.83 3954.1C3614.83 4003.59 3600.69 4048.03 3572.41 4087.42C3545.14 4125.8 3505.24 4156.1 3452.72 4178.32C3401.21 4200.54 3341.12 4211.65 3272.44 4211.65Z" fill="url(#paint5_linear_2_86)"/>
<path d="M2742.45 3354.16V4199.53H2483.38V4084.39C2457.12 4121.76 2421.27 4152.06 2375.82 4175.29C2331.38 4197.51 2281.89 4208.62 2227.35 4208.62C2162.71 4208.62 2105.64 4194.48 2056.15 4166.2C2006.66 4136.91 1968.28 4095 1941.01 4040.46C1913.74 3985.92 1900.11 3921.78 1900.11 3848.05V3354.16H2157.66V3813.21C2157.66 3869.77 2172.3 3913.7 2201.59 3945.01C2230.88 3976.32 2270.27 3991.98 2319.76 3991.98C2370.26 3991.98 2410.16 3976.32 2439.45 3945.01C2468.74 3913.7 2483.38 3869.77 2483.38 3813.21V3354.16H2742.45Z" fill="url(#paint6_linear_2_86)"/>
<path d="M1518.73 3495.05C1549.03 3448.59 1586.9 3412.23 1632.35 3385.97C1677.8 3358.7 1728.3 3345.07 1783.85 3345.07V3619.28H1712.65C1648.01 3619.28 1599.53 3633.42 1567.21 3661.7C1534.89 3688.97 1518.73 3737.45 1518.73 3807.14V4199.53H1259.66V3354.16H1518.73V3495.05Z" fill="url(#paint7_linear_2_86)"/>
<path d="M1129.65 3136V3343.56H847.855V4199.53H588.79V3343.56H307V3136H1129.65Z" fill="url(#paint8_linear_2_86)"/>
<path d="M5102.97 1119.14C5071.34 1001.14 5021.31 895.343 4904.2 840.214C4757.09 767.572 4610.58 790.505 4468.55 789.173C4082.66 785.553 3696.68 792.832 3310.74 791.53C3188.26 791.117 3099.65 699.849 3103.1 593.225C3106.64 483.545 3199.32 398.235 3329.72 405.423C3791.17 430.857 4252.83 417.236 4714.38 420.812C4768.76 421.232 4822.1 423.828 4875.69 436.304C5400.25 558.428 5664.6 1178.81 5325.14 1651.84C5167.37 1871.7 4942.84 1961.11 4684.65 1976.03C4616.02 1980 4546.97 1978.3 4478.15 1976.6L4472.67 1976.46C4354.4 1973.55 4257.86 1882.21 4262.44 1779.83C4266.97 1678.7 4354.88 1601.19 4472.58 1606.12C4581.8 1610.7 4689.25 1594.48 4796.83 1585.17C4988.11 1568.62 5154.09 1309.89 5102.97 1119.14Z" fill="url(#paint9_linear_2_86)"/>
<path d="M3342.54 971.827C3475.69 968.21 3609.01 971.166 3742.26 971.224C3970.68 971.246 4182.8 970.046 4394.89 971.681C4540.92 972.807 4631.72 1069.28 4625.99 1212.3C4621.82 1316.27 4535.12 1406.13 4431.37 1409.45C4344.43 1412.23 4257.2 1413.61 4170.38 1409.44C4104.9 1406.29 4086.03 1433.52 4086.61 1497.27C4088.99 1758.4 4087.75 2019.56 4087.39 2280.71C4087.19 2427.56 3997.99 2526.86 3868.11 2525.99C3757.44 2525.26 3659.5 2414.67 3658.57 2282.56C3656.73 2021.42 3655.99 1760.23 3659.15 1499.12C3659.99 1429.24 3636.09 1405.35 3569.59 1409.26C3496.41 1413.57 3422.8 1410.37 3349.38 1410.19C3213.76 1409.84 3122.84 1334.02 3119.59 1218.81C3115.35 1067.73 3195.62 975.819 3342.54 971.827Z" fill="url(#paint10_linear_2_86)"/>
<defs>
<linearGradient id="paint0_linear_2_86" x1="4424.14" y1="2532.53" x2="4424.14" y2="4504.53" gradientUnits="userSpaceOnUse">
<stop stop-color="#6E3995"/>
<stop offset="0.485" stop-color="#553D93"/>
<stop offset="0.745" stop-color="#4C3E95"/>
<stop offset="1" stop-color="#404094"/>
</linearGradient>
<linearGradient id="paint1_linear_2_86" x1="4424.14" y1="2532.53" x2="4424.14" y2="4504.53" gradientUnits="userSpaceOnUse">
<stop stop-color="#6E3995"/>
<stop offset="0.485" stop-color="#553D93"/>
<stop offset="0.745" stop-color="#4C3E95"/>
<stop offset="1" stop-color="#404094"/>
</linearGradient>
<linearGradient id="paint2_linear_2_86" x1="4424.14" y1="2532.53" x2="4424.14" y2="4504.53" gradientUnits="userSpaceOnUse">
<stop stop-color="#6E3995"/>
<stop offset="0.485" stop-color="#553D93"/>
<stop offset="0.745" stop-color="#4C3E95"/>
<stop offset="1" stop-color="#404094"/>
</linearGradient>
<linearGradient id="paint3_linear_2_86" x1="4424.14" y1="2532.53" x2="4424.14" y2="4504.53" gradientUnits="userSpaceOnUse">
<stop stop-color="#6E3995"/>
<stop offset="0.485" stop-color="#553D93"/>
<stop offset="0.745" stop-color="#4C3E95"/>
<stop offset="1" stop-color="#404094"/>
</linearGradient>
<linearGradient id="paint4_linear_2_86" x1="4424.14" y1="2532.53" x2="4424.14" y2="4504.53" gradientUnits="userSpaceOnUse">
<stop stop-color="#6E3995"/>
<stop offset="0.485" stop-color="#553D93"/>
<stop offset="0.745" stop-color="#4C3E95"/>
<stop offset="1" stop-color="#404094"/>
</linearGradient>
<linearGradient id="paint5_linear_2_86" x1="4424.14" y1="2532.53" x2="4424.14" y2="4504.53" gradientUnits="userSpaceOnUse">
<stop stop-color="#6E3995"/>
<stop offset="0.485" stop-color="#553D93"/>
<stop offset="0.745" stop-color="#4C3E95"/>
<stop offset="1" stop-color="#404094"/>
</linearGradient>
<linearGradient id="paint6_linear_2_86" x1="4424.14" y1="2532.53" x2="4424.14" y2="4504.53" gradientUnits="userSpaceOnUse">
<stop stop-color="#6E3995"/>
<stop offset="0.485" stop-color="#553D93"/>
<stop offset="0.745" stop-color="#4C3E95"/>
<stop offset="1" stop-color="#404094"/>
</linearGradient>
<linearGradient id="paint7_linear_2_86" x1="4424.14" y1="2532.53" x2="4424.14" y2="4504.53" gradientUnits="userSpaceOnUse">
<stop stop-color="#6E3995"/>
<stop offset="0.485" stop-color="#553D93"/>
<stop offset="0.745" stop-color="#4C3E95"/>
<stop offset="1" stop-color="#404094"/>
</linearGradient>
<linearGradient id="paint8_linear_2_86" x1="4424.14" y1="2532.53" x2="4424.14" y2="4504.53" gradientUnits="userSpaceOnUse">
<stop offset="0.065" stop-color="#533C94"/>
<stop offset="0.475" stop-color="#4B3F95"/>
<stop offset="1" stop-color="#322FA8"/>
</linearGradient>
<linearGradient id="paint9_linear_2_86" x1="4290" y1="405" x2="4290" y2="2526" gradientUnits="userSpaceOnUse">
<stop stop-color="#6F3893"/>
<stop offset="0.495" stop-color="#653A94"/>
<stop offset="1" stop-color="#5D3C95"/>
</linearGradient>
<linearGradient id="paint10_linear_2_86" x1="4290" y1="405" x2="4290" y2="2526" gradientUnits="userSpaceOnUse">
<stop stop-color="#6F3893"/>
<stop offset="0.495" stop-color="#653A94"/>
<stop offset="1" stop-color="#5D3C95"/>
</linearGradient>
</defs>
</svg>
