<svg width="42" height="42" viewBox="0 0 42 42" fill="none" xmlns="http://www.w3.org/2000/svg">
<path d="M20.8333 0C32.3396 0 41.6667 9.32708 41.6667 20.8333C41.6667 32.3396 32.3396 41.6667 20.8333 41.6667C9.32708 41.6667 0 32.3396 0 20.8333C0 9.32708 9.32708 0 20.8333 0ZM20.8333 4.16667C16.4131 4.16667 12.1738 5.92261 9.04822 9.04822C5.92261 12.1738 4.16667 16.4131 4.16667 20.8333C4.16667 25.2536 5.92261 29.4928 9.04822 32.6184C12.1738 35.7441 16.4131 37.5 20.8333 37.5C25.2536 37.5 29.4928 35.7441 32.6184 32.6184C35.7441 29.4928 37.5 25.2536 37.5 20.8333C37.5 16.4131 35.7441 12.1738 32.6184 9.04822C29.4928 5.92261 25.2536 4.16667 20.8333 4.16667ZM20.8333 8.33333C21.3436 8.3334 21.8361 8.52074 22.2174 8.85982C22.5988 9.19891 22.8424 9.66614 22.9021 10.1729L22.9167 10.4167V19.9708L28.5563 25.6104C28.9299 25.9853 29.1468 26.4884 29.163 27.0175C29.1791 27.5465 28.9933 28.0619 28.6432 28.4589C28.2932 28.8559 27.8051 29.1048 27.2782 29.155C26.7513 29.2052 26.225 29.0529 25.8063 28.7292L25.6104 28.5563L19.3604 22.3063C19.0366 21.9822 18.8287 21.5604 18.7688 21.1063L18.75 20.8333V10.4167C18.75 9.86413 18.9695 9.33423 19.3602 8.94353C19.7509 8.55283 20.2808 8.33333 20.8333 8.33333Z" fill="#7D7B7B"/>
</svg>
